<svg xmlns="http://www.w3.org/2000/svg" width="23.791" height="23.791" viewBox="0 0 23.791 23.791"><defs><style>.a{fill:none;}.b{fill:rgba(5,130,139,0.5);}</style></defs><g transform="translate(-0.001)"><path class="a" d="M0,0H23.791V23.791H0Z" transform="translate(0.001 0)"/><path class="b" d="M7.23,11.278H9.344V13.34H7.23Zm14.8-5.155V20.557a2.1,2.1,0,0,1-2.115,2.062H5.115A2.088,2.088,0,0,1,3,20.557L3.011,6.124a2.079,2.079,0,0,1,2.1-2.062H6.172V2H8.287V4.062h8.459V2h2.115V4.062h1.057A2.1,2.1,0,0,1,22.033,6.124ZM5.115,8.186h14.8V6.124H5.115Zm14.8,12.371V10.248H5.115V20.557Zm-4.23-7.217H17.8V11.278H15.689Zm-4.229,0h2.115V11.278H11.459Z" transform="translate(-0.62 -0.414)"/></g></svg>