<svg xmlns="http://www.w3.org/2000/svg" xmlns:xlink="http://www.w3.org/1999/xlink" width="10.705" height="18.001" viewBox="0 0 10.705 18.001"><defs><style>.a{fill:url(#a);}</style><linearGradient id="a" x1="-0.076" x2="0.984" gradientUnits="objectBoundingBox"><stop offset="0" stop-color="#05828b"/><stop offset="1" stop-color="#13b4bf"/></linearGradient></defs><path class="a" d="M11.405-4.488c0-2.662-2.317-3.332-4.443-3.849v-3.868a7.924,7.924,0,0,1,3.1,1.034l.785-1.934a8.209,8.209,0,0,0-3.888-1.168V-16.4H5.392v2.164c-2.987.287-4.4,1.992-4.4,3.945,0,2.662,2.279,3.351,4.4,3.868v3.83a7.356,7.356,0,0,1-3.83-1.455L.7-2.114A8.384,8.384,0,0,0,5.392-.524V1.6h1.57V-.543C9.969-.85,11.405-2.535,11.405-4.488ZM3.458-10.406c0-.843.575-1.532,1.934-1.743V-8.74C4.281-9.065,3.458-9.487,3.458-10.406Zm3.5,7.775V-6.02c1.149.326,1.992.766,1.992,1.7C8.954-3.493,8.36-2.841,6.962-2.631Z" transform="translate(-0.7 16.4)"/></svg>